<svg id="Group_399" data-name="Group 399" xmlns="http://www.w3.org/2000/svg" xmlns:xlink="http://www.w3.org/1999/xlink" width="37" height="48" viewBox="0 0 37 48">
  <defs>
    <clipPath id="clip-path">
      <rect id="Rectangle_706" data-name="Rectangle 706" width="37" height="48" fill="none" stroke="#1b1c1e" stroke-width="1"/>
    </clipPath>
  </defs>
  <g id="Group_396" data-name="Group 396">
    <g id="Group_395" data-name="Group 395" clip-path="url(#clip-path)">
      <path id="Path_74" data-name="Path 74" d="M15,8H36V47H5V8h9" fill="none" stroke="#1b1c1e" stroke-linejoin="round" stroke-width="2"/>
      <line id="Line_121" data-name="Line 121" x2="15" transform="translate(18 4)" fill="none" stroke="#1b1c1e" stroke-linejoin="round" stroke-width="2"/>
      <path id="Path_75" data-name="Path 75" d="M1,43V4H8" fill="none" stroke="#1b1c1e" stroke-linejoin="round" stroke-width="2"/>
    </g>
  </g>
  <line id="Line_122" data-name="Line 122" x2="19" transform="translate(11 25)" fill="none" stroke="#1b1c1e" stroke-linejoin="round" stroke-width="2"/>
  <line id="Line_123" data-name="Line 123" x2="19" transform="translate(11 21)" fill="none" stroke="#1b1c1e" stroke-linejoin="round" stroke-width="2"/>
  <line id="Line_124" data-name="Line 124" x2="9" transform="translate(11 29)" fill="none" stroke="#1b1c1e" stroke-linejoin="round" stroke-width="2"/>
  <g id="Group_398" data-name="Group 398">
    <g id="Group_397" data-name="Group 397" clip-path="url(#clip-path)">
      <path id="Path_76" data-name="Path 76" d="M11,11v3a2,2,0,0,0,2,2h1a2,2,0,0,0,2-2V3a2,2,0,0,0-2-2H12a2,2,0,0,0-2,2V8" fill="none" stroke="#1b1c1e" stroke-linejoin="round" stroke-width="2"/>
    </g>
  </g>
</svg>
