<svg id="Group_274" data-name="Group 274" xmlns="http://www.w3.org/2000/svg" xmlns:xlink="http://www.w3.org/1999/xlink" width="21.297" height="20.959" viewBox="0 0 21.297 20.959">
  <defs>
    <clipPath id="clip-path">
      <path id="Path_28" data-name="Path 28" d="M0,9.762H21.3V-11.2H0Z" transform="translate(0 11.197)" fill="none"/>
    </clipPath>
  </defs>
  <g id="Group_266" data-name="Group 266" transform="translate(0 0)" clip-path="url(#clip-path)">
    <g id="Group_265" data-name="Group 265" transform="translate(0 0)">
      <path id="Path_27" data-name="Path 27" d="M9.162,8.066l1.4-1.353a.445.445,0,0,0,.032-.6L9.315,4.589l1.166-1.136a.443.443,0,0,0,.045-.58L9.3,1.227,10.481.072a.446.446,0,0,0,.03-.6L9.279-2.019l1.243-1.617a.446.446,0,0,0-.041-.588L9.109-5.553l1.357-1.224a.45.45,0,0,0,.148-.314.442.442,0,0,0-.129-.326L8.826-9.094a.44.44,0,0,0-.522-.08L6.088-8,4.536-9.141a.445.445,0,0,0-.468-.034L1.852-8,.3-9.141a.443.443,0,0,0-.487-.024l-2,1.179-2.19-1.2a.445.445,0,0,0-.477.03L-6.367-8.052-7.8-9.16a.444.444,0,0,0-.543,0l-2,1.567a.445.445,0,0,0-.073.623.439.439,0,0,0,.084.082l1.977,1.466-1.709,1.29a.444.444,0,0,0-.084.621.429.429,0,0,0,.039.043L-8.5-1.85-10.1-.361a.438.438,0,0,0-.14.348.445.445,0,0,0,.174.329l1.533,1.155-1.585,1.651a.458.458,0,0,0-.122.344.447.447,0,0,0,.174.316l1.5,1.138L-10.2,6.438a.442.442,0,0,0-.028.625.4.4,0,0,0,.06.054L-8.589,8.3-10.161,9.41a.439.439,0,0,0-.187.356.439.439,0,0,0,.176.361l2,1.492a.444.444,0,0,0,.528,0L-6.2,10.561l1.527,1.065a.444.444,0,0,0,.459.028l2.168-1.132,1.993,1.125a.443.443,0,0,0,.47-.021l1.57-1.093,2.246,1.11a.447.447,0,0,0,.444-.03l1.578-1.078,2.233,1.108a.444.444,0,0,0,.505-.075l1.657-1.6a.444.444,0,0,0,.024-.627.391.391,0,0,0-.041-.037ZM8.6,10.726,6.416,9.618a.444.444,0,0,0-.444.034L4.4,10.741,2.174,9.618a.443.443,0,0,0-.444.034L.179,10.736-1.792,9.627a.442.442,0,0,0-.421,0l-2.143,1.108L-5.95,9.648a.447.447,0,0,0-.515,0L-7.9,10.7l-1.247-.928,1.625-1.138a.442.442,0,0,0,.11-.618h0a.441.441,0,0,0-.309-.185L-9.208,6.722l1.647-1.507a.442.442,0,0,0,.026-.625.327.327,0,0,0-.06-.054L-9.124,3.381-7.541,1.73a.442.442,0,0,0,.122-.344.443.443,0,0,0-.176-.316L-9.1-.07-7.55-1.514a.445.445,0,0,0,.142-.314.444.444,0,0,0-.129-.32L-9.107-3.73l1.522-1.149A.444.444,0,0,0-7.5-5.5l-.019-.024a.443.443,0,0,0-.155-.5L-9.33-7.247l1.263-.994,1.43,1.093a.438.438,0,0,0,.532,0l1.552-1.138,2.134,1.17a.447.447,0,0,0,.444,0L-.014-8.273,1.538-7.14a.444.444,0,0,0,.47.036L4.224-8.282,5.775-7.14a.444.444,0,0,0,.47.036L8.418-8.258,9.527-7.15,8.257-6.006a.442.442,0,0,0-.034.627h0l.045.037a.438.438,0,0,0,.133.311L9.579-3.87,8.359-2.285a.447.447,0,0,0,0,.552l1.2,1.451L8.4.851a.443.443,0,0,0-.047.582L9.583,3.089,8.4,4.24a.443.443,0,0,0-.03.6L9.648,6.361,8.417,7.553a.447.447,0,0,0-.086.52.439.439,0,0,0,.107.539L9.68,9.68Z" transform="translate(10.509 9.252)" fill="#2b2e34"/>
    </g>
  </g>
</svg>
