<svg id="Group_275" data-name="Group 275" xmlns="http://www.w3.org/2000/svg" xmlns:xlink="http://www.w3.org/1999/xlink" width="24" height="25.402" viewBox="0 0 24 25.402">
  <defs>
    <clipPath id="clip-path">
      <path id="Path_33" data-name="Path 33" d="M0,13.518H24v-25.4H0Z" transform="translate(0 11.884)" fill="none"/>
    </clipPath>
  </defs>
  <g id="Group_272" data-name="Group 272" transform="translate(0 0)" clip-path="url(#clip-path)">
    <g id="Group_268" data-name="Group 268" transform="translate(0.215 0.214)">
      <path id="Path_29" data-name="Path 29" d="M10.76,4.394a2.125,2.125,0,0,0-.737-.652.321.321,0,0,0-.419.107.278.278,0,0,0,.115.391,1.49,1.49,0,0,1,.526.466l3,4.3a1.4,1.4,0,0,1-.46,2.022l-2.646,1.6L7.391,8.693a.319.319,0,0,0-.423-.083.274.274,0,0,0-.09.4l2.747,3.939-3.649,2.21L4.747,13.389a.322.322,0,0,0-.425-.086.276.276,0,0,0-.09.4l1.231,1.768c-.611.37,1.725-1.047-3.651,2.21-.165-.195-.207-.415-.451-.425C3.362,13.7,7.7,6,9.552,2.71A2.138,2.138,0,0,0,8.558-.27L3.206-2.888a2.519,2.519,0,0,0-1.244-.246.292.292,0,0,0-.286.3A.3.3,0,0,0,2-2.563a1.848,1.848,0,0,1,.921.184L8.272.237a1.582,1.582,0,0,1,.737,2.206L7.387,5.324C5.9,4.6,2.947,3.152,1.318,2.355V-1.657A2.294,2.294,0,0,0-1.05-3.863H-7.093A2.292,2.292,0,0,0-9.459-1.657V16.089A5.221,5.221,0,0,0-4.07,21.112,5.567,5.567,0,0,0-.2,19.575C.985,18.859,11.784,12.32,13.12,11.51a1.956,1.956,0,0,0,.641-2.815ZM-8.846,2.169H.7v4.51h-9.55ZM1.318,12.047V8.74l3.247,1.59L2.317,14.323l-1-.489ZM-8.846,7.25H.7v4.51h-9.55ZM1.318,16.089V14.481l.714.348L1.318,16.1v-.009M7.1,5.831l-.425.755L4.852,9.824,1.318,8.094V3ZM-7.093-3.292H-1.05A1.7,1.7,0,0,1,.7-1.657V1.6h-9.55V-1.657A1.7,1.7,0,0,1-7.093-3.292M-8.846,16.089V12.333H.7v3.756a4.628,4.628,0,0,1-4.775,4.45,4.626,4.626,0,0,1-4.775-4.45m9.9,1.541a2.134,2.134,0,0,0,.239.359l-.539.327a4.761,4.761,0,0,0,.3-.686" transform="translate(9.459 3.863)" fill="#2b2e34"/>
    </g>
    <g id="Group_269" data-name="Group 269" transform="translate(0.215 0.214)">
      <path id="Path_30" data-name="Path 30" d="M10.76,4.394a2.125,2.125,0,0,0-.737-.652.321.321,0,0,0-.419.107.278.278,0,0,0,.115.391,1.49,1.49,0,0,1,.526.466l3,4.3a1.4,1.4,0,0,1-.46,2.022l-2.646,1.6L7.391,8.693a.319.319,0,0,0-.423-.083.274.274,0,0,0-.09.4l2.747,3.939-3.649,2.21L4.747,13.389a.322.322,0,0,0-.425-.086.276.276,0,0,0-.09.4l1.231,1.768c-.611.37,1.725-1.047-3.651,2.21-.165-.195-.207-.415-.451-.425C3.362,13.7,7.7,6,9.552,2.71A2.138,2.138,0,0,0,8.558-.27L3.206-2.888a2.519,2.519,0,0,0-1.244-.246.292.292,0,0,0-.286.3A.3.3,0,0,0,2-2.563a1.848,1.848,0,0,1,.921.184L8.272.237a1.582,1.582,0,0,1,.737,2.206L7.387,5.324C5.9,4.6,2.947,3.152,1.318,2.355V-1.657A2.294,2.294,0,0,0-1.05-3.863H-7.093A2.292,2.292,0,0,0-9.459-1.657V16.089A5.221,5.221,0,0,0-4.07,21.112,5.567,5.567,0,0,0-.2,19.575C.985,18.859,11.784,12.32,13.12,11.51a1.956,1.956,0,0,0,.641-2.815ZM-8.846,2.169H.7v4.51h-9.55ZM1.318,12.047V8.74l3.247,1.59L2.317,14.323l-1-.489ZM-8.846,7.25H.7v4.51h-9.55ZM1.318,16.089V14.481l.714.348L1.318,16.1ZM7.1,5.831l-.425.755L4.852,9.824,1.318,8.094V3ZM-7.093-3.292H-1.05A1.7,1.7,0,0,1,.7-1.657V1.6h-9.55V-1.657A1.7,1.7,0,0,1-7.093-3.292ZM-8.846,16.089V12.333H.7v3.756a4.628,4.628,0,0,1-4.775,4.45A4.626,4.626,0,0,1-8.846,16.089Zm9.9,1.541a2.134,2.134,0,0,0,.239.359l-.539.327A4.761,4.761,0,0,0,1.058,17.63Z" transform="translate(9.459 3.863)" fill="none" stroke="#2b2e34" stroke-width="0.2"/>
    </g>
    <g id="Group_270" data-name="Group 270" transform="translate(3.818 19.296)">
      <path id="Path_31" data-name="Path 31" d="M.363.12a1.34,1.34,0,0,0-.44,1.932A1.567,1.567,0,0,0,2,2.461a1.338,1.338,0,0,0,.44-1.93A1.567,1.567,0,0,0,.363.12m1.3,1.868A.934.934,0,0,1,.432,1.745.8.8,0,0,1,.695.595.929.929,0,0,1,1.928.839a.8.8,0,0,1-.261,1.15" transform="translate(0.319 0.106)" fill="#2b2e34"/>
    </g>
    <g id="Group_271" data-name="Group 271" transform="translate(3.818 19.296)">
      <path id="Path_32" data-name="Path 32" d="M.363.12a1.34,1.34,0,0,0-.44,1.932A1.567,1.567,0,0,0,2,2.461a1.338,1.338,0,0,0,.44-1.93A1.567,1.567,0,0,0,.363.12Zm1.3,1.868A.934.934,0,0,1,.432,1.745.8.8,0,0,1,.695.595.929.929,0,0,1,1.928.839.8.8,0,0,1,1.667,1.988Z" transform="translate(0.319 0.106)" fill="none" stroke="#2b2e34" stroke-width="0.2"/>
    </g>
  </g>
</svg>
