<svg xmlns="http://www.w3.org/2000/svg" xmlns:xlink="http://www.w3.org/1999/xlink" width="16.012" height="17.698" viewBox="0 0 16.012 17.698">
  <defs>
    <clipPath id="clip-path">
      <rect id="Rectangle_495" data-name="Rectangle 495" width="16.012" height="17.698" fill="none"/>
    </clipPath>
  </defs>
  <g id="Group_401" data-name="Group 401" transform="translate(0 0)">
    <g id="Group_304" data-name="Group 304" transform="translate(0 0)" clip-path="url(#clip-path)">
      <path id="Path_53" data-name="Path 53" d="M15.268,11.271l-.257,1.738a.523.523,0,0,1-.513.447H13.43V6.16a.312.312,0,1,0-.624,0v9.322a.2.2,0,0,1-.2.2H3.514a.2.2,0,0,1-.2-.2V6.16a.312.312,0,1,0-.623,0v7.3H1.627a.523.523,0,0,1-.52-.447L.85,11.271A10.92,10.92,0,0,1,2.469,3.688a4.7,4.7,0,0,1,.867-1.06L5.96,3.756v2.7a.312.312,0,1,0,.623,0V4.024l1.353.582a.312.312,0,0,0,.122.025h0a.312.312,0,0,0,.122-.025l1.352-.582v2.43a.312.312,0,1,0,.623,0v-2.7l2.624-1.129a4.646,4.646,0,0,1,.867,1.059h0a10.915,10.915,0,0,1,1.619,7.583m-1.46,3.444H13.43v-.63h.744v.259a.37.37,0,0,1-.367.371m-1.883,2.361H4.193a.37.37,0,0,1-.368-.371v-.389h8.467V16.7a.37.37,0,0,1-.368.371M2.311,14.715a.37.37,0,0,1-.368-.371v-.259h.745v.63ZM5.07.731,7.137,3.579,3.617,2.066a1.315,1.315,0,0,1,.344-.944A1.669,1.669,0,0,1,5.07.731m5.041.225L8.059,3.785,6.007.957a9.368,9.368,0,0,0,4.1,0M12.5,2.066,8.981,3.579,11.048.731a1.669,1.669,0,0,1,1.109.39,1.319,1.319,0,0,1,.344.944m1.668,1.276a5.023,5.023,0,0,0-1.037-1.237A1.929,1.929,0,0,0,12.588.667a2.393,2.393,0,0,0-1.729-.56l-.013,0-.018,0L10.79.122a8.727,8.727,0,0,1-5.462,0L5.29.114l-.019,0-.013,0A2.394,2.394,0,0,0,3.53.667a1.929,1.929,0,0,0-.544,1.438A5.033,5.033,0,0,0,1.949,3.342,11.553,11.553,0,0,0,.234,11.364L.491,13.1a1.153,1.153,0,0,0,.829.941v.3a1,1,0,0,0,.991,1h.377v.139a.835.835,0,0,0,.514.771V16.7a1,1,0,0,0,.991,1h7.732a1,1,0,0,0,.991-1v-.451a.835.835,0,0,0,.514-.771v-.139h.377a1,1,0,0,0,.991-1v-.3a1.153,1.153,0,0,0,.829-.941l.257-1.738a11.549,11.549,0,0,0-1.715-8.022" transform="translate(-0.053 -0.053)"/>
      <path id="Path_54" data-name="Path 54" d="M15.268,11.271l-.257,1.738a.523.523,0,0,1-.513.447H13.43V6.16a.312.312,0,1,0-.624,0v9.322a.2.2,0,0,1-.2.2H3.514a.2.2,0,0,1-.2-.2V6.16a.312.312,0,1,0-.623,0v7.3H1.627a.523.523,0,0,1-.52-.447L.85,11.271A10.92,10.92,0,0,1,2.469,3.688a4.7,4.7,0,0,1,.867-1.06L5.96,3.756v2.7a.312.312,0,1,0,.623,0V4.024l1.353.582a.312.312,0,0,0,.122.025h0a.312.312,0,0,0,.122-.025l1.352-.582v2.43a.312.312,0,1,0,.623,0v-2.7l2.624-1.129a4.646,4.646,0,0,1,.867,1.059h0A10.915,10.915,0,0,1,15.268,11.271Zm-1.46,3.444H13.43v-.63h.744v.259A.37.37,0,0,1,13.807,14.715Zm-1.883,2.361H4.193a.37.37,0,0,1-.368-.371v-.389h8.467V16.7A.37.37,0,0,1,11.925,17.075ZM2.311,14.715a.37.37,0,0,1-.368-.371v-.259h.745v.63ZM5.07.731,7.137,3.579,3.617,2.066a1.315,1.315,0,0,1,.344-.944A1.669,1.669,0,0,1,5.07.731Zm5.041.225L8.059,3.785,6.007.957A9.368,9.368,0,0,0,10.112.957ZM12.5,2.066,8.981,3.579,11.048.731a1.669,1.669,0,0,1,1.109.39A1.319,1.319,0,0,1,12.5,2.066Zm1.668,1.276a5.023,5.023,0,0,0-1.037-1.237A1.929,1.929,0,0,0,12.588.667a2.393,2.393,0,0,0-1.729-.56l-.013,0-.018,0L10.79.122a8.727,8.727,0,0,1-5.462,0L5.29.114l-.019,0-.013,0A2.394,2.394,0,0,0,3.53.667a1.929,1.929,0,0,0-.544,1.438A5.033,5.033,0,0,0,1.949,3.342,11.553,11.553,0,0,0,.234,11.364L.491,13.1a1.153,1.153,0,0,0,.829.941v.3a1,1,0,0,0,.991,1h.377v.139a.835.835,0,0,0,.514.771V16.7a1,1,0,0,0,.991,1h7.732a1,1,0,0,0,.991-1v-.451a.835.835,0,0,0,.514-.771v-.139h.377a1,1,0,0,0,.991-1v-.3a1.153,1.153,0,0,0,.829-.941l.257-1.738A11.549,11.549,0,0,0,14.169,3.342Z" transform="translate(-0.053 -0.053)" fill="none"/>
    </g>
  </g>
</svg>
