<svg xmlns="http://www.w3.org/2000/svg" xmlns:xlink="http://www.w3.org/1999/xlink" width="154" height="90.648" viewBox="0 0 154 90.648">
  <defs>
    <clipPath id="clip-path">
      <rect id="Rectangle_495" data-name="Rectangle 495" width="82.011" height="90.648" fill="none"/>
    </clipPath>
  </defs>
  <g id="Group_459" data-name="Group 459" transform="translate(-557 -1198)">
    <g id="Group_305" data-name="Group 305" transform="translate(557 1198)">
      <g id="Group_304" data-name="Group 304" transform="translate(0 0)" clip-path="url(#clip-path)">
        <path id="Path_53" data-name="Path 53" d="M77.787,57.316l-1.317,8.9a2.677,2.677,0,0,1-2.629,2.287H68.377V31.138a1.6,1.6,0,1,0-3.2,0V78.887a1.04,1.04,0,0,1-1.035,1.045H17.585a1.041,1.041,0,0,1-1.038-1.045V31.138a1.6,1.6,0,1,0-3.193,0V68.507H7.923A2.678,2.678,0,0,1,5.26,66.22l-1.317-8.9a55.932,55.932,0,0,1,8.292-38.842,24.046,24.046,0,0,1,4.44-5.43l13.438,5.781V32.648a1.6,1.6,0,1,0,3.193,0V20.2l6.932,2.983a1.6,1.6,0,0,0,.626.128h0a1.6,1.6,0,0,0,.626-.128L48.419,20.2V32.648a1.6,1.6,0,1,0,3.193,0V18.83L65.05,13.049a23.8,23.8,0,0,1,4.442,5.425v0a55.9,55.9,0,0,1,8.295,38.84M70.308,74.955H68.377V71.726h3.812v1.329a1.893,1.893,0,0,1-1.88,1.9M60.665,87.047h-39.6a1.894,1.894,0,0,1-1.883-1.9V83.154H62.548v1.994a1.894,1.894,0,0,1-1.883,1.9M11.424,74.955a1.894,1.894,0,0,1-1.883-1.9V71.726h3.814v3.229ZM25.557,3.333,36.142,17.92,18.115,10.167a6.737,6.737,0,0,1,1.76-4.835,8.547,8.547,0,0,1,5.682-2M51.378,4.487,40.866,18.974,30.354,4.489a47.985,47.985,0,0,0,21.025,0m12.236,5.68L45.588,17.92,56.172,3.333a8.547,8.547,0,0,1,5.682,2,6.758,6.758,0,0,1,1.76,4.835M72.16,16.7a25.728,25.728,0,0,0-5.314-6.335A9.882,9.882,0,0,0,64.06,3,12.258,12.258,0,0,0,55.207.136c-.022,0-.043.012-.065.014s-.063.014-.094.019a1.644,1.644,0,0,0-.2.041,44.7,44.7,0,0,1-27.974,0,1.874,1.874,0,0,0-.2-.041c-.034-.007-.063-.014-.1-.019s-.043-.012-.065-.014A12.262,12.262,0,0,0,17.669,3a9.882,9.882,0,0,0-2.786,7.365A25.781,25.781,0,0,0,9.57,16.7,59.172,59.172,0,0,0,.784,57.793l1.317,8.9a5.906,5.906,0,0,0,4.245,4.82v1.541a5.1,5.1,0,0,0,5.078,5.119h1.931v.713a4.278,4.278,0,0,0,2.632,3.951v2.309a5.1,5.1,0,0,0,5.078,5.119h39.6a5.106,5.106,0,0,0,5.078-5.119V82.838a4.276,4.276,0,0,0,2.634-3.951v-.713h1.931a5.1,5.1,0,0,0,5.076-5.119V71.515a5.906,5.906,0,0,0,4.245-4.82l1.317-8.9A59.156,59.156,0,0,0,72.16,16.7" transform="translate(0.141 0.142)"/>
        <path id="Path_54" data-name="Path 54" d="M77.787,57.316l-1.317,8.9a2.677,2.677,0,0,1-2.629,2.287H68.377V31.138a1.6,1.6,0,1,0-3.2,0V78.887a1.04,1.04,0,0,1-1.035,1.045H17.585a1.041,1.041,0,0,1-1.038-1.045V31.138a1.6,1.6,0,1,0-3.193,0V68.507H7.923A2.678,2.678,0,0,1,5.26,66.22l-1.317-8.9a55.932,55.932,0,0,1,8.292-38.842,24.046,24.046,0,0,1,4.44-5.43l13.438,5.781V32.648a1.6,1.6,0,1,0,3.193,0V20.2l6.932,2.983a1.6,1.6,0,0,0,.626.128h0a1.6,1.6,0,0,0,.626-.128L48.419,20.2V32.648a1.6,1.6,0,1,0,3.193,0V18.83L65.05,13.049a23.8,23.8,0,0,1,4.442,5.425v0A55.9,55.9,0,0,1,77.787,57.316ZM70.308,74.955H68.377V71.726h3.812v1.329A1.893,1.893,0,0,1,70.308,74.955ZM60.665,87.047h-39.6a1.894,1.894,0,0,1-1.883-1.9V83.154H62.548v1.994A1.894,1.894,0,0,1,60.665,87.047ZM11.424,74.955a1.894,1.894,0,0,1-1.883-1.9V71.726h3.814v3.229ZM25.557,3.333,36.142,17.92,18.115,10.167a6.737,6.737,0,0,1,1.76-4.835A8.547,8.547,0,0,1,25.557,3.333ZM51.378,4.487,40.866,18.974,30.354,4.489A47.985,47.985,0,0,0,51.378,4.487Zm12.236,5.68L45.588,17.92,56.172,3.333a8.547,8.547,0,0,1,5.682,2A6.758,6.758,0,0,1,63.615,10.167ZM72.16,16.7a25.728,25.728,0,0,0-5.314-6.335A9.882,9.882,0,0,0,64.06,3,12.258,12.258,0,0,0,55.207.136c-.022,0-.043.012-.065.014s-.063.014-.094.019a1.644,1.644,0,0,0-.2.041,44.7,44.7,0,0,1-27.974,0,1.874,1.874,0,0,0-.2-.041c-.034-.007-.063-.014-.1-.019s-.043-.012-.065-.014A12.262,12.262,0,0,0,17.669,3a9.882,9.882,0,0,0-2.786,7.365A25.781,25.781,0,0,0,9.57,16.7,59.172,59.172,0,0,0,.784,57.793l1.317,8.9a5.906,5.906,0,0,0,4.245,4.82v1.541a5.1,5.1,0,0,0,5.078,5.119h1.931v.713a4.278,4.278,0,0,0,2.632,3.951v2.309a5.1,5.1,0,0,0,5.078,5.119h39.6a5.106,5.106,0,0,0,5.078-5.119V82.838a4.276,4.276,0,0,0,2.634-3.951v-.713h1.931a5.1,5.1,0,0,0,5.076-5.119V71.515a5.906,5.906,0,0,0,4.245-4.82l1.317-8.9A59.156,59.156,0,0,0,72.16,16.7Z" transform="translate(0.141 0.142)" fill="none" stroke="#fff" stroke-miterlimit="10" stroke-width="0.2"/>
      </g>
    </g>
    <g id="Group_306" data-name="Group 306" transform="translate(628.988 1198)">
      <g id="Group_304-2" data-name="Group 304" transform="translate(0 0)" clip-path="url(#clip-path)">
        <path id="Path_53-2" data-name="Path 53" d="M77.787,57.316l-1.317,8.9a2.677,2.677,0,0,1-2.629,2.287H68.377V31.138a1.6,1.6,0,1,0-3.2,0V78.887a1.04,1.04,0,0,1-1.035,1.045H17.585a1.041,1.041,0,0,1-1.038-1.045V31.138a1.6,1.6,0,1,0-3.193,0V68.507H7.923A2.678,2.678,0,0,1,5.26,66.22l-1.317-8.9a55.932,55.932,0,0,1,8.292-38.842,24.046,24.046,0,0,1,4.44-5.43l13.438,5.781V32.648a1.6,1.6,0,1,0,3.193,0V20.2l6.932,2.983a1.6,1.6,0,0,0,.626.128h0a1.6,1.6,0,0,0,.626-.128L48.419,20.2V32.648a1.6,1.6,0,1,0,3.193,0V18.83L65.05,13.049a23.8,23.8,0,0,1,4.442,5.425v0a55.9,55.9,0,0,1,8.295,38.84M70.308,74.955H68.377V71.726h3.812v1.329a1.893,1.893,0,0,1-1.88,1.9M60.665,87.047h-39.6a1.894,1.894,0,0,1-1.883-1.9V83.154H62.548v1.994a1.894,1.894,0,0,1-1.883,1.9M11.424,74.955a1.894,1.894,0,0,1-1.883-1.9V71.726h3.814v3.229ZM25.557,3.333,36.142,17.92,18.115,10.167a6.737,6.737,0,0,1,1.76-4.835,8.547,8.547,0,0,1,5.682-2M51.378,4.487,40.866,18.974,30.354,4.489a47.985,47.985,0,0,0,21.025,0m12.236,5.68L45.588,17.92,56.172,3.333a8.547,8.547,0,0,1,5.682,2,6.758,6.758,0,0,1,1.76,4.835M72.16,16.7a25.728,25.728,0,0,0-5.314-6.335A9.882,9.882,0,0,0,64.06,3,12.258,12.258,0,0,0,55.207.136c-.022,0-.043.012-.065.014s-.063.014-.094.019a1.644,1.644,0,0,0-.2.041,44.7,44.7,0,0,1-27.974,0,1.874,1.874,0,0,0-.2-.041c-.034-.007-.063-.014-.1-.019s-.043-.012-.065-.014A12.262,12.262,0,0,0,17.669,3a9.882,9.882,0,0,0-2.786,7.365A25.781,25.781,0,0,0,9.57,16.7,59.172,59.172,0,0,0,.784,57.793l1.317,8.9a5.906,5.906,0,0,0,4.245,4.82v1.541a5.1,5.1,0,0,0,5.078,5.119h1.931v.713a4.278,4.278,0,0,0,2.632,3.951v2.309a5.1,5.1,0,0,0,5.078,5.119h39.6a5.106,5.106,0,0,0,5.078-5.119V82.838a4.276,4.276,0,0,0,2.634-3.951v-.713h1.931a5.1,5.1,0,0,0,5.076-5.119V71.515a5.906,5.906,0,0,0,4.245-4.82l1.317-8.9A59.156,59.156,0,0,0,72.16,16.7" transform="translate(0.141 0.142)"/>
        <path id="Path_54-2" data-name="Path 54" d="M77.787,57.316l-1.317,8.9a2.677,2.677,0,0,1-2.629,2.287H68.377V31.138a1.6,1.6,0,1,0-3.2,0V78.887a1.04,1.04,0,0,1-1.035,1.045H17.585a1.041,1.041,0,0,1-1.038-1.045V31.138a1.6,1.6,0,1,0-3.193,0V68.507H7.923A2.678,2.678,0,0,1,5.26,66.22l-1.317-8.9a55.932,55.932,0,0,1,8.292-38.842,24.046,24.046,0,0,1,4.44-5.43l13.438,5.781V32.648a1.6,1.6,0,1,0,3.193,0V20.2l6.932,2.983a1.6,1.6,0,0,0,.626.128h0a1.6,1.6,0,0,0,.626-.128L48.419,20.2V32.648a1.6,1.6,0,1,0,3.193,0V18.83L65.05,13.049a23.8,23.8,0,0,1,4.442,5.425v0A55.9,55.9,0,0,1,77.787,57.316ZM70.308,74.955H68.377V71.726h3.812v1.329A1.893,1.893,0,0,1,70.308,74.955ZM60.665,87.047h-39.6a1.894,1.894,0,0,1-1.883-1.9V83.154H62.548v1.994A1.894,1.894,0,0,1,60.665,87.047ZM11.424,74.955a1.894,1.894,0,0,1-1.883-1.9V71.726h3.814v3.229ZM25.557,3.333,36.142,17.92,18.115,10.167a6.737,6.737,0,0,1,1.76-4.835A8.547,8.547,0,0,1,25.557,3.333ZM51.378,4.487,40.866,18.974,30.354,4.489A47.985,47.985,0,0,0,51.378,4.487Zm12.236,5.68L45.588,17.92,56.172,3.333a8.547,8.547,0,0,1,5.682,2A6.758,6.758,0,0,1,63.615,10.167ZM72.16,16.7a25.728,25.728,0,0,0-5.314-6.335A9.882,9.882,0,0,0,64.06,3,12.258,12.258,0,0,0,55.207.136c-.022,0-.043.012-.065.014s-.063.014-.094.019a1.644,1.644,0,0,0-.2.041,44.7,44.7,0,0,1-27.974,0,1.874,1.874,0,0,0-.2-.041c-.034-.007-.063-.014-.1-.019s-.043-.012-.065-.014A12.262,12.262,0,0,0,17.669,3a9.882,9.882,0,0,0-2.786,7.365A25.781,25.781,0,0,0,9.57,16.7,59.172,59.172,0,0,0,.784,57.793l1.317,8.9a5.906,5.906,0,0,0,4.245,4.82v1.541a5.1,5.1,0,0,0,5.078,5.119h1.931v.713a4.278,4.278,0,0,0,2.632,3.951v2.309a5.1,5.1,0,0,0,5.078,5.119h39.6a5.106,5.106,0,0,0,5.078-5.119V82.838a4.276,4.276,0,0,0,2.634-3.951v-.713h1.931a5.1,5.1,0,0,0,5.076-5.119V71.515a5.906,5.906,0,0,0,4.245-4.82l1.317-8.9A59.156,59.156,0,0,0,72.16,16.7Z" transform="translate(0.141 0.142)" fill="none" stroke="#fff" stroke-miterlimit="10" stroke-width="0.2"/>
      </g>
    </g>
  </g>
</svg>
