<svg id="_1161954_instagram_icon_4_" data-name="1161954_instagram_icon (4)" xmlns="http://www.w3.org/2000/svg" width="40.368" height="40.367" viewBox="0 0 40.368 40.367">
  <ellipse id="Ellipse_2" data-name="Ellipse 2" cx="3.61" cy="3.61" rx="3.61" ry="3.61" transform="translate(16.41 16.738)"/>
  <path id="Path_14" data-name="Path 14" d="M30.674,19.2H21.649a4.484,4.484,0,0,0-3.2,1.149,4.484,4.484,0,0,0-1.149,3.2v9.025a4.522,4.522,0,0,0,1.231,3.282A4.625,4.625,0,0,0,21.731,37h8.943a4.484,4.484,0,0,0,3.2-1.149,4.2,4.2,0,0,0,1.231-3.2V23.631a4.625,4.625,0,0,0-1.149-3.2A4.393,4.393,0,0,0,30.674,19.2ZM26.161,33.64a5.579,5.579,0,1,1,0-11.158,5.58,5.58,0,1,1,0,11.158Zm5.825-10.092A1.313,1.313,0,1,1,33.3,22.236,1.3,1.3,0,0,1,31.987,23.549Z" transform="translate(-6.142 -7.713)"/>
  <path id="Path_15" data-name="Path 15" d="M23.884,5.2A20.184,20.184,0,1,0,44.067,25.384,20.169,20.169,0,0,0,23.884,5.2ZM34.632,30.142a6.5,6.5,0,0,1-1.805,4.677,6.385,6.385,0,0,1-4.595,1.723H19.289a6.385,6.385,0,0,1-4.595-1.723,6.182,6.182,0,0,1-1.805-4.677V21.117a6.072,6.072,0,0,1,6.4-6.4h9.025a6.051,6.051,0,0,1,6.318,6.4v9.025Z" transform="translate(-3.7 -5.2)"/>
</svg>
