<svg xmlns="http://www.w3.org/2000/svg" width="40.367" height="40.367" viewBox="0 0 40.367 40.367">
  <path id="_7693316_linkedin_social_media_logo_icon_2_" data-name="7693316_linkedin_social media_logo_icon (2)" d="M20.184,0A20.184,20.184,0,1,0,40.367,20.184,20.184,20.184,0,0,0,20.184,0ZM14.462,30.17h-4.5V16.056h4.5ZM12.213,14.208a2.531,2.531,0,1,1,2.531-2.531,2.531,2.531,0,0,1-2.531,2.531ZM30.685,30.17H26.27V22.453c0-.392.062-2.992-2.146-2.992a2.44,2.44,0,0,0-2.025.992,3.085,3.085,0,0,0-.616,1.876V30.17h-4.41V16.056h4.2v1.981a5.1,5.1,0,0,1,9.416,2.628Z"/>
</svg>
