<svg id="Group_246" data-name="Group 246" xmlns="http://www.w3.org/2000/svg" xmlns:xlink="http://www.w3.org/1999/xlink" width="183.992" height="41.268" viewBox="0 0 183.992 41.268">
  <defs>
    <clipPath id="clip-path">
      <rect id="Rectangle_325" data-name="Rectangle 325" width="183.992" height="41.268" fill="#1b1c1e"/>
    </clipPath>
  </defs>
  <g id="Group_245" data-name="Group 245" clip-path="url(#clip-path)">
    <path id="Path_4" data-name="Path 4" d="M7.684,0C2.729,0,0,3.522,0,9.916V31.351c0,6.395,2.729,9.916,7.684,9.916s7.684-3.522,7.684-9.916V25.6H10.284v6.21c0,2.347-.828,3.538-2.461,3.538s-2.46-1.19-2.46-3.538V9.517c0-2.352.851-3.595,2.46-3.595s2.461,1.243,2.461,3.595v4.729h5.083V9.916C15.367,3.522,12.639,0,7.684,0" fill="#1b1c1e"/>
    <path id="Path_5" data-name="Path 5" d="M100.843,0c-5.106,0-7.917,3.6-7.917,10.144V31.123c0,6.542,2.812,10.144,7.917,10.144s7.917-3.6,7.917-10.144V10.143C108.761,3.6,105.949,0,100.843,0M98.289,9.744c0-2.573.836-3.823,2.554-3.823S103.4,7.172,103.4,9.744V31.522c0,2.572-.835,3.823-2.554,3.823s-2.554-1.25-2.554-3.823Z" transform="translate(-75.069 0.001)" fill="#1b1c1e"/>
    <path id="Path_6" data-name="Path 6" d="M185.123,8.889H190.5V43.094h5.363V8.889h5.376V2.966H185.123Z" transform="translate(-149.549 -2.396)" fill="#1b1c1e"/>
    <path id="Path_7" data-name="Path 7" d="M273.671,8.889h5.376V43.094h5.363V8.889h5.376V2.966H273.671Z" transform="translate(-221.082 -2.396)" fill="#1b1c1e"/>
    <path id="Path_8" data-name="Path 8" d="M375.244,0c-5.105,0-7.917,3.6-7.917,10.144V31.123c0,6.542,2.812,10.144,7.917,10.144s7.918-3.6,7.918-10.144V10.143C383.162,3.6,380.35,0,375.244,0M372.69,9.744c0-2.573.835-3.823,2.554-3.823S377.8,7.172,377.8,9.744V31.522c0,2.572-.835,3.823-2.554,3.823s-2.554-1.25-2.554-3.823Z" transform="translate(-296.741 0.001)" fill="#1b1c1e"/>
    <path id="Path_9" data-name="Path 9" d="M478.124,26.342l-4.9-23.376h-6.651V43.094h4.8V14.466l6.064,28.628h5.483V2.966h-4.8Z" transform="translate(-376.92 -2.396)" fill="#1b1c1e"/>
    <rect id="Rectangle_324" data-name="Rectangle 324" width="5.364" height="40.128" transform="translate(123.516 0.57)" fill="#1b1c1e"/>
    <path id="Path_10" data-name="Path 10" d="M697.441,2.966h-7.964V43.094h7.964c5.087,0,7.777-3.449,7.777-9.973V12.939c0-6.524-2.689-9.973-7.777-9.973m2.413,9.688V33.405c0,2.569-.8,3.766-2.507,3.766H694.84V8.888h2.507c1.71,0,2.507,1.2,2.507,3.766" transform="translate(-556.986 -2.396)" fill="#1b1c1e"/>
    <path id="Path_11" data-name="Path 11" d="M794.07,0c-5.015,0-7.777,3.6-7.777,10.144V31.123c0,6.542,2.762,10.144,7.777,10.144s7.777-3.6,7.777-10.144V17.958h-7.654V23.88h2.571v7.7c0,2.569-.812,3.766-2.554,3.766s-2.554-1.2-2.554-3.766V9.745c0-2.573.835-3.823,2.554-3.823s2.554,1.251,2.554,3.823v3.93h5.082V10.144C801.847,3.6,799.085,0,794.07,0" transform="translate(-635.198)" fill="#1b1c1e"/>
    <path id="Path_12" data-name="Path 12" d="M897.6,8.889V2.966H883.354V43.094H897.6V37.172h-8.882V25.136h7.058V19.214h-7.058V8.889Z" transform="translate(-713.608 -2.396)" fill="#1b1c1e"/>
    <path id="Path_13" data-name="Path 13" d="M581.862,38.137V31.125c0-4.926-1.043-7.556-3.38-8.5,2.242-1.172,3.333-3.763,3.333-7.918V12.255c0-6.337-2.456-9.289-7.731-9.289H571.5V8.888h2.448c1.757,0,2.507,1.194,2.507,3.994v3.078c0,3.641-1.59,4.108-2.975,4.108H571.5v5.922h1.887c2.329,0,3.115,1.209,3.115,4.792v7.3a14.972,14.972,0,0,0,.457,4.88l.036.134h5.476l-.051-.147a14.1,14.1,0,0,1-.555-4.809" transform="translate(-461.678 -2.396)" fill="#1b1c1e"/>
  </g>
</svg>
