<svg xmlns="http://www.w3.org/2000/svg" width="110.631" height="20.414" viewBox="0 0 110.631 20.414">
  <g id="Group_457" data-name="Group 457" transform="translate(-1272.784 -74)">
    <path id="Menu_One_Copy" data-name="Menu One Copy" d="M-32.216-.453V-2a3,3,0,0,0,.637.422,5.159,5.159,0,0,0,.781.316,6.219,6.219,0,0,0,.824.2,4.6,4.6,0,0,0,.766.07A3,3,0,0,0-27.4-1.441a1.52,1.52,0,0,0,.6-1.293,1.518,1.518,0,0,0-.2-.789,2.244,2.244,0,0,0-.551-.613,5.465,5.465,0,0,0-.832-.531q-.48-.254-1.035-.535-.586-.3-1.094-.6a4.74,4.74,0,0,1-.883-.672,2.8,2.8,0,0,1-.59-.832A2.575,2.575,0,0,1-32.2-8.4a2.563,2.563,0,0,1,.336-1.332,2.881,2.881,0,0,1,.883-.934,4,4,0,0,1,1.246-.547,5.706,5.706,0,0,1,1.426-.18,5.464,5.464,0,0,1,2.414.4v1.477a4.376,4.376,0,0,0-2.547-.687,4.189,4.189,0,0,0-.859.09,2.428,2.428,0,0,0-.766.293,1.7,1.7,0,0,0-.547.523,1.389,1.389,0,0,0-.211.781,1.608,1.608,0,0,0,.16.742,1.819,1.819,0,0,0,.473.57,4.708,4.708,0,0,0,.762.5q.449.242,1.035.531.6.3,1.141.625a5.214,5.214,0,0,1,.945.727,3.229,3.229,0,0,1,.645.883,2.482,2.482,0,0,1,.238,1.109,2.813,2.813,0,0,1-.324,1.4,2.661,2.661,0,0,1-.875.934,3.822,3.822,0,0,1-1.27.52,6.953,6.953,0,0,1-1.516.16,6.176,6.176,0,0,1-.656-.043q-.391-.043-.8-.125a6.5,6.5,0,0,1-.77-.2A2.4,2.4,0,0,1-32.216-.453ZM-15.5,0h-5.937V-11.2h5.688v1.188H-20.12v3.727h4.047v1.18H-20.12v3.922H-15.5ZM-2.907,0H-4.36L-5.548-3.141H-10.3L-11.415,0h-1.461l4.3-11.2H-7.22Zm-3.07-4.32L-7.735-9.094a4.571,4.571,0,0,1-.172-.75h-.031a4.185,4.185,0,0,1-.18.75L-9.86-4.32ZM8.532,0H6.97L5.095-3.141a6.84,6.84,0,0,0-.5-.746,2.85,2.85,0,0,0-.5-.5,1.718,1.718,0,0,0-.547-.285,2.249,2.249,0,0,0-.66-.09H1.814V0H.5V-11.2H3.845A4.765,4.765,0,0,1,5.2-11.02a3.033,3.033,0,0,1,1.078.559,2.6,2.6,0,0,1,.715.934,3.1,3.1,0,0,1,.258,1.309,3.151,3.151,0,0,1-.176,1.074,2.805,2.805,0,0,1-.5.871,3.031,3.031,0,0,1-.781.652A3.988,3.988,0,0,1,4.767-5.2v.031a2.363,2.363,0,0,1,.488.285,2.687,2.687,0,0,1,.395.379,5.019,5.019,0,0,1,.371.5q.184.277.41.645ZM1.814-10.016v4.063H3.595A2.7,2.7,0,0,0,4.5-6.1a2.107,2.107,0,0,0,.723-.426,1.931,1.931,0,0,0,.477-.68,2.275,2.275,0,0,0,.172-.9,1.756,1.756,0,0,0-.582-1.4,2.5,2.5,0,0,0-1.684-.5ZM19.23-.469a6.571,6.571,0,0,1-3.094.656,4.989,4.989,0,0,1-3.828-1.539A5.679,5.679,0,0,1,10.87-5.391a5.952,5.952,0,0,1,1.617-4.344,5.489,5.489,0,0,1,4.1-1.656,6.576,6.576,0,0,1,2.641.461v1.4a5.355,5.355,0,0,0-2.656-.672,4.076,4.076,0,0,0-3.129,1.289,4.856,4.856,0,0,0-1.2,3.445,4.621,4.621,0,0,0,1.121,3.262A3.815,3.815,0,0,0,16.308-.992a5.518,5.518,0,0,0,2.922-.75ZM31.693,0H30.38V-5.109h-5.8V0H23.271V-11.2h1.313v4.914h5.8V-11.2h1.313Z" transform="translate(1305 90.735)" fill="#1b1c1e"/>
    <g id="_8666693_search_icon" data-name="8666693_search_icon" transform="translate(1361 72)">
      <circle id="Ellipse_3" data-name="Ellipse 3" cx="8" cy="8" r="8" transform="translate(3 3)" fill="none" stroke="#1b1c1e" stroke-linecap="round" stroke-linejoin="round" stroke-width="2"/>
      <line id="Line_115" data-name="Line 115" x1="4.35" y1="4.35" transform="translate(16.65 16.65)" fill="none" stroke="#1b1c1e" stroke-linecap="round" stroke-linejoin="round" stroke-width="2"/>
    </g>
  </g>
</svg>
